# https://github.com/mikedh/trimesh
v 0.01615088 0.12000000 0.00000000
v 0.09201886 0.12000000 0.00000000
v 0.09201886 0.10631805 0.00000000
v 0.03237891 0.10631805 0.00000000
v 0.03237891 0.07080154 0.00000000
v 0.08952422 0.07080154 0.00000000
v 0.08952422 0.05714531 0.00000000
v 0.03237891 0.05714531 0.00000000
v 0.03237891 0.01365624 0.00000000
v 0.09345907 0.01365624 0.00000000
v 0.09345907 0.00000000 0.00000000
v 0.01615088 0.00000000 0.00000000
v 0.01615088 0.12000000 0.05000000
v 0.09201886 0.12000000 0.05000000
v 0.09201886 0.10631805 0.05000000
v 0.03237891 0.10631805 0.05000000
v 0.03237891 0.07080154 0.05000000
v 0.08952422 0.07080154 0.05000000
v 0.08952422 0.05714531 0.05000000
v 0.03237891 0.05714531 0.05000000
v 0.03237891 0.01365624 0.05000000
v 0.09345907 0.01365624 0.05000000
v 0.09345907 0.00000000 0.05000000
v 0.01615088 0.00000000 0.05000000
vn -0.57735027 0.57735027 -0.57735027
vn 0.57735027 0.57735027 -0.57735027
vn 0.57735027 -0.57735027 -0.57735027
vn 0.30151134 -0.30151134 -0.90453403
vn 0.30151134 0.30151134 -0.90453403
vn 0.57735027 0.57735027 -0.57735027
vn 0.57735027 -0.57735027 -0.57735027
vn 0.30151134 -0.30151134 -0.90453403
vn 0.30151134 0.30151134 -0.90453403
vn 0.57735027 0.57735027 -0.57735027
vn 0.57735027 -0.57735027 -0.57735027
vn -0.57735027 -0.57735027 -0.57735027
vn -0.57735027 0.57735027 0.57735027
vn 0.57735027 0.57735027 0.57735027
vn 0.57735027 -0.57735027 0.57735027
vn 0.30151134 -0.30151134 0.90453403
vn 0.30151134 0.30151134 0.90453403
vn 0.57735027 0.57735027 0.57735027
vn 0.57735027 -0.57735027 0.57735027
vn 0.30151134 -0.30151134 0.90453403
vn 0.30151134 0.30151134 0.90453403
vn 0.57735027 0.57735027 0.57735027
vn 0.57735027 -0.57735027 0.57735027
vn -0.57735027 -0.57735027 0.57735027
f 8//8 9//9 12//12
f 11//11 12//12 9//9
f 1//1 8//8 12//12
f 4//4 5//5 1//1
f 8//8 1//1 5//5
f 2//2 4//4 1//1
f 5//5 7//7 8//8
f 11//11 9//9 10//10
f 4//4 2//2 3//3
f 5//5 6//6 7//7
f 24//24 21//21 20//20
f 21//21 24//24 23//23
f 24//24 20//20 13//13
f 13//13 17//17 16//16
f 17//17 13//13 20//20
f 13//13 16//16 14//14
f 20//20 19//19 17//17
f 22//22 21//21 23//23
f 15//15 14//14 16//16
f 19//19 18//18 17//17
f 13//13 14//14 1//1
f 1//1 14//14 2//2
f 14//14 15//15 2//2
f 2//2 15//15 3//3
f 15//15 16//16 3//3
f 3//3 16//16 4//4
f 16//16 17//17 4//4
f 4//4 17//17 5//5
f 17//17 18//18 5//5
f 5//5 18//18 6//6
f 18//18 19//19 6//6
f 6//6 19//19 7//7
f 19//19 20//20 7//7
f 7//7 20//20 8//8
f 20//20 21//21 8//8
f 8//8 21//21 9//9
f 21//21 22//22 9//9
f 9//9 22//22 10//10
f 22//22 23//23 10//10
f 10//10 23//23 11//11
f 24//24 13//13 12//12
f 12//12 13//13 1//1
f 23//23 24//24 11//11
f 11//11 24//24 12//12

