# https://github.com/mikedh/trimesh
v 0.01615088 0.12000000 0.00000000
v 0.03237891 0.12000000 0.00000000
v 0.03237891 0.01365624 0.00000000
v 0.09081012 0.01365624 0.00000000
v 0.09081012 0.00000000 0.00000000
v 0.01615088 0.00000000 0.00000000
v 0.01615088 0.12000000 0.05000000
v 0.03237891 0.12000000 0.05000000
v 0.03237891 0.01365624 0.05000000
v 0.09081012 0.01365624 0.05000000
v 0.09081012 0.00000000 0.05000000
v 0.01615088 0.00000000 0.05000000
vn -0.57735027 0.57735027 -0.57735027
vn 0.57735027 0.57735027 -0.57735027
vn 0.30151134 0.30151134 -0.90453403
vn 0.57735027 0.57735027 -0.57735027
vn 0.57735027 -0.57735027 -0.57735027
vn -0.57735027 -0.57735027 -0.57735027
vn -0.57735027 0.57735027 0.57735027
vn 0.57735027 0.57735027 0.57735027
vn 0.30151134 0.30151134 0.90453403
vn 0.57735027 0.57735027 0.57735027
vn 0.57735027 -0.57735027 0.57735027
vn -0.57735027 -0.57735027 0.57735027
f 1//1 3//3 6//6
f 5//5 6//6 3//3
f 2//2 3//3 1//1
f 5//5 3//3 4//4
f 12//12 9//9 7//7
f 9//9 12//12 11//11
f 7//7 9//9 8//8
f 10//10 9//9 11//11
f 7//7 8//8 1//1
f 1//1 8//8 2//2
f 8//8 9//9 2//2
f 2//2 9//9 3//3
f 9//9 10//10 3//3
f 3//3 10//10 4//4
f 10//10 11//11 4//4
f 4//4 11//11 5//5
f 12//12 7//7 6//6
f 6//6 7//7 1//1
f 11//11 12//12 5//5
f 5//5 12//12 6//6

